<?xml version="1.0" encoding="UTF-8" standalone="no"?>
<!-- Generator: Adobe Illustrator 21.0.0, SVG Export Plug-In . SVG Version: 6.00 Build 0)  -->

<svg
   xmlns:dc="http://purl.org/dc/elements/1.1/"
   xmlns:cc="http://creativecommons.org/ns#"
   xmlns:rdf="http://www.w3.org/1999/02/22-rdf-syntax-ns#"
   xmlns:svg="http://www.w3.org/2000/svg"
   xmlns="http://www.w3.org/2000/svg"
   xmlns:sodipodi="http://sodipodi.sourceforge.net/DTD/sodipodi-0.dtd"
   xmlns:inkscape="http://www.inkscape.org/namespaces/inkscape"
   version="1.1"
   id="Layer_2"
   x="0px"
   y="0px"
   viewBox="0 0 178.9 157.5"
   style="enable-background:new 0 0 178.9 157.5;"
   xml:space="preserve"
   inkscape:version="0.91 r13725"
   sodipodi:docname="pige-static.svg"><metadata
     id="metadata17"><rdf:RDF><cc:Work
         rdf:about=""><dc:format>image/svg+xml</dc:format><dc:type
           rdf:resource="http://purl.org/dc/dcmitype/StillImage" /><dc:title></dc:title></cc:Work></rdf:RDF></metadata><defs
     id="defs15" /><sodipodi:namedview
     pagecolor="#ffffff"
     bordercolor="#666666"
     borderopacity="1"
     objecttolerance="10"
     gridtolerance="10"
     guidetolerance="10"
     inkscape:pageopacity="0"
     inkscape:pageshadow="2"
     inkscape:window-width="1920"
     inkscape:window-height="1152"
     id="namedview13"
     showgrid="false"
     inkscape:zoom="1.4984127"
     inkscape:cx="101.12902"
     inkscape:cy="78.75"
     inkscape:window-x="0"
     inkscape:window-y="279"
     inkscape:window-maximized="1"
     inkscape:current-layer="Layer_2" /><style
     type="text/css"
     id="style3">
	.st0{fill:none;stroke:#C38D7C;stroke-width:7;stroke-linecap:round;stroke-linejoin:round;stroke-miterlimit:10;}
</style><path
     inkscape:connector-curvature="0"
     d="m 131.09777,7.3538189 -23.79872,0 0,17.8490351 23.79872,7.686992 0,-25.5360271 z m -59.496823,0 -23.798726,0 0,25.5360271 23.798726,-7.686992 0,-17.8490351 z m 23.798728,26.3451871 0,65.446508 c 5.949675,2.974836 11.899375,5.122676 11.899375,13.303486 l 0,37.69718 41.64777,0 0,-85.734916 c 0,-16.653152 -13.98175,-17.521816 -53.547145,-30.712258 z M 119.1984,114.44808 c 0,-10.9236 -4.23617,-18.200066 -11.89935,-22.608779 l 0,-41.796514 c 20.38359,6.431604 29.7484,8.418798 29.7484,14.368477 l 0,50.036816 -17.84905,0 z m 0,23.79873 0,-11.89935 17.84905,0 0,11.89935 -17.84905,0 z M 83.500319,33.699006 C 44.690537,46.639568 29.953174,47.424919 29.953174,64.411264 l 0,85.734916 41.647773,0 0,-37.69718 c 0,-8.17486 5.94968,-10.32865 11.899372,-13.303486 l 0,-65.446508 z m -41.647777,80.749074 0,-50.036816 c 0,-5.949679 8.198656,-7.645336 29.748405,-14.386325 l 0,41.814362 c -7.651294,4.402763 -11.89937,11.667329 -11.89937,22.608779 l -17.849035,0 z m 0,23.79873 0,-11.89935 17.849035,0 0,11.89935 -17.849035,0 z"
     id="path4"
     style="fill:#5300d3;fill-opacity:1" /></svg>